<svg id="visual" viewBox="0 0 900 450" width="900" height="450" xmlns="http://www.w3.org/2000/svg" xmlns:xlink="http://www.w3.org/1999/xlink" version="1.1"><rect x="0" y="0" width="900" height="450" fill="#202731"></rect><path d="M0 350L15 334C30 318 60 286 90 286.5C120 287 150 320 180 317.5C210 315 240 277 270 264C300 251 330 263 360 273.5C390 284 420 293 450 297.7C480 302.3 510 302.7 540 305.7C570 308.7 600 314.3 630 317.3C660 320.3 690 320.7 720 312.5C750 304.3 780 287.7 810 282.5C840 277.3 870 283.7 885 286.8L900 290L900 451L885 451C870 451 840 451 810 451C780 451 750 451 720 451C690 451 660 451 630 451C600 451 570 451 540 451C510 451 480 451 450 451C420 451 390 451 360 451C330 451 300 451 270 451C240 451 210 451 180 451C150 451 120 451 90 451C60 451 30 451 15 451L0 451Z" fill="#ff6f61"></path><path d="M0 330L15 327.8C30 325.7 60 321.3 90 312.3C120 303.3 150 289.7 180 299C210 308.3 240 340.7 270 353.8C300 367 330 361 360 352.3C390 343.7 420 332.3 450 323.7C480 315 510 309 540 302.3C570 295.7 600 288.3 630 298C660 307.7 690 334.3 720 333.3C750 332.3 780 303.7 810 294.3C840 285 870 295 885 300L900 305L900 451L885 451C870 451 840 451 810 451C780 451 750 451 720 451C690 451 660 451 630 451C600 451 570 451 540 451C510 451 480 451 450 451C420 451 390 451 360 451C330 451 300 451 270 451C240 451 210 451 180 451C150 451 120 451 90 451C60 451 30 451 15 451L0 451Z" fill="#ff5e60"></path><path d="M0 398L15 398.3C30 398.7 60 399.3 90 394.2C120 389 150 378 180 365.3C210 352.7 240 338.3 270 339.3C300 340.3 330 356.7 360 364.2C390 371.7 420 370.3 450 369C480 367.7 510 366.3 540 361.2C570 356 600 347 630 351C660 355 690 372 720 379.5C750 387 780 385 810 385.5C840 386 870 389 885 390.5L900 392L900 451L885 451C870 451 840 451 810 451C780 451 750 451 720 451C690 451 660 451 630 451C600 451 570 451 540 451C510 451 480 451 450 451C420 451 390 451 360 451C330 451 300 451 270 451C240 451 210 451 180 451C150 451 120 451 90 451C60 451 30 451 15 451L0 451Z" fill="#ff4b60"></path><path d="M0 407L15 404C30 401 60 395 90 390.7C120 386.3 150 383.7 180 387C210 390.3 240 399.7 270 401.5C300 403.3 330 397.7 360 398.5C390 399.3 420 406.7 450 410.8C480 415 510 416 540 407.8C570 399.7 600 382.3 630 372.7C660 363 690 361 720 365.2C750 369.3 780 379.7 810 382.8C840 386 870 382 885 380L900 378L900 451L885 451C870 451 840 451 810 451C780 451 750 451 720 451C690 451 660 451 630 451C600 451 570 451 540 451C510 451 480 451 450 451C420 451 390 451 360 451C330 451 300 451 270 451C240 451 210 451 180 451C150 451 120 451 90 451C60 451 30 451 15 451L0 451Z" fill="#ff3362"></path><path d="M0 386L15 391.2C30 396.3 60 406.7 90 407.8C120 409 150 401 180 396.3C210 391.7 240 390.3 270 395.8C300 401.3 330 413.7 360 421.3C390 429 420 432 450 431.8C480 431.7 510 428.3 540 421C570 413.7 600 402.3 630 405C660 407.7 690 424.3 720 424.2C750 424 780 407 810 403.5C840 400 870 410 885 415L900 420L900 451L885 451C870 451 840 451 810 451C780 451 750 451 720 451C690 451 660 451 630 451C600 451 570 451 540 451C510 451 480 451 450 451C420 451 390 451 360 451C330 451 300 451 270 451C240 451 210 451 180 451C150 451 120 451 90 451C60 451 30 451 15 451L0 451Z" fill="#ff0066"></path></svg>