<svg id="visual" viewBox="0 0 900 450" width="900" height="450" xmlns="http://www.w3.org/2000/svg" xmlns:xlink="http://www.w3.org/1999/xlink" version="1.1"><rect x="0" y="0" width="900" height="450" fill="#202731"></rect><path d="M0 98L15 114C30 130 60 162 90 161.5C120 161 150 128 180 130.5C210 133 240 171 270 184C300 197 330 185 360 174.5C390 164 420 155 450 150.3C480 145.7 510 145.3 540 142.3C570 139.3 600 133.7 630 130.7C660 127.7 690 127.3 720 135.5C750 143.7 780 160.3 810 165.5C840 170.7 870 164.3 885 161.2L900 158L900 0L885 0C870 0 840 0 810 0C780 0 750 0 720 0C690 0 660 0 630 0C600 0 570 0 540 0C510 0 480 0 450 0C420 0 390 0 360 0C330 0 300 0 270 0C240 0 210 0 180 0C150 0 120 0 90 0C60 0 30 0 15 0L0 0Z" fill="#ff6f61"></path><path d="M0 118L15 120.2C30 122.3 60 126.7 90 135.7C120 144.7 150 158.3 180 149C210 139.7 240 107.3 270 94.2C300 81 330 87 360 95.7C390 104.3 420 115.7 450 124.3C480 133 510 139 540 145.7C570 152.3 600 159.7 630 150C660 140.3 690 113.7 720 114.7C750 115.7 780 144.3 810 153.7C840 163 870 153 885 148L900 143L900 0L885 0C870 0 840 0 810 0C780 0 750 0 720 0C690 0 660 0 630 0C600 0 570 0 540 0C510 0 480 0 450 0C420 0 390 0 360 0C330 0 300 0 270 0C240 0 210 0 180 0C150 0 120 0 90 0C60 0 30 0 15 0L0 0Z" fill="#ff5e60"></path><path d="M0 50L15 49.7C30 49.3 60 48.7 90 53.8C120 59 150 70 180 82.7C210 95.3 240 109.7 270 108.7C300 107.7 330 91.3 360 83.8C390 76.3 420 77.7 450 79C480 80.3 510 81.7 540 86.8C570 92 600 101 630 97C660 93 690 76 720 68.5C750 61 780 63 810 62.5C840 62 870 59 885 57.5L900 56L900 0L885 0C870 0 840 0 810 0C780 0 750 0 720 0C690 0 660 0 630 0C600 0 570 0 540 0C510 0 480 0 450 0C420 0 390 0 360 0C330 0 300 0 270 0C240 0 210 0 180 0C150 0 120 0 90 0C60 0 30 0 15 0L0 0Z" fill="#ff4b60"></path><path d="M0 41L15 44C30 47 60 53 90 57.3C120 61.7 150 64.3 180 61C210 57.7 240 48.3 270 46.5C300 44.7 330 50.3 360 49.5C390 48.7 420 41.3 450 37.2C480 33 510 32 540 40.2C570 48.3 600 65.7 630 75.3C660 85 690 87 720 82.8C750 78.7 780 68.3 810 65.2C840 62 870 66 885 68L900 70L900 0L885 0C870 0 840 0 810 0C780 0 750 0 720 0C690 0 660 0 630 0C600 0 570 0 540 0C510 0 480 0 450 0C420 0 390 0 360 0C330 0 300 0 270 0C240 0 210 0 180 0C150 0 120 0 90 0C60 0 30 0 15 0L0 0Z" fill="#ff3362"></path><path d="M0 62L15 56.8C30 51.7 60 41.3 90 40.2C120 39 150 47 180 51.7C210 56.3 240 57.7 270 52.2C300 46.7 330 34.3 360 26.7C390 19 420 16 450 16.2C480 16.3 510 19.7 540 27C570 34.3 600 45.7 630 43C660 40.3 690 23.7 720 23.8C750 24 780 41 810 44.5C840 48 870 38 885 33L900 28L900 0L885 0C870 0 840 0 810 0C780 0 750 0 720 0C690 0 660 0 630 0C600 0 570 0 540 0C510 0 480 0 450 0C420 0 390 0 360 0C330 0 300 0 270 0C240 0 210 0 180 0C150 0 120 0 90 0C60 0 30 0 15 0L0 0Z" fill="#ff0066"></path></svg>